# xmcd CD database file
#
# Track frame offsets:
#	150
#	23497
#	45393
#	61905
#	83302
#	106522
#	125970
#	152337
#	173728
#	180616
#	208606
#	234497
#
# Disc length: 3385 seconds
#
# Revision: 1
# Processed by: cddbd v1.5.2PL0 Copyright (c) Steve Scherf et al.
# Submitted via: CDex 1.51
#
DISCID=820d370c
DTITLE=Urban Jazz Coalition - Down to Get Up
DYEAR=2006
DGENRE=Jazz
TTITLE0=Back in the VIlle
TTITLE1=Accelerate
TTITLE2=Down to Get Up
TTITLE3=True Love
TTITLE4=Geogy Porgy
TTITLE5=The Wizard
TTITLE6=En Mis Suenos
TTITLE7=Groove 4 U
TTITLE8=Nosotros
TTITLE9=Intimate Journey
TTITLE10=On the Radio
TTITLE11=Down Some Mo
EXTD=YEAR: 2006
EXTT0=
EXTT1=
EXTT2=
EXTT3=
EXTT4=
EXTT5=
EXTT6=
EXTT7=
EXTT8=
EXTT9=
EXTT10=
EXTT11=
PLAYORDER=
